<svg width="550" height="550" viewBox="0 0 550 550" fill="none" xmlns="http://www.w3.org/2000/svg">
<circle cx="275" cy="275" r="275" fill="#EEEEEE"/>
<path d="M211.151 124.683C214.996 124.685 218.225 125.105 221.311 124.618C238.506 121.908 252.924 128.479 267.162 137.051C273.762 141.024 269.003 146.868 271.872 151.963C273.592 152.11 275.882 152.305 277.943 152.481C278.485 151.689 279.044 151.239 278.979 150.914C277.039 141.3 283.022 137.723 290.123 132.809C307.324 120.904 325.956 125.751 344.8 124.755C344.8 134.176 344.8 142.85 344.8 152.365C389.456 152.365 433.572 152.365 478.079 152.365C478.079 169.645 478.079 186.074 478.079 202.879C342.714 202.879 207.547 202.879 72 202.879C72 186.248 72 169.806 72 152.535C116.203 152.535 160.333 152.535 205.185 152.535C205.185 144.493 205.392 137.249 205.105 130.024C204.94 125.881 206.303 124.08 211.151 124.683Z" fill="#113546"/>
<path d="M165.31 376.704C269.904 376.704 373.766 376.704 478.079 376.704C478.079 393.468 478.079 409.698 478.079 426.368C342.728 426.368 207.572 426.368 72 426.368C72 409.962 72 393.706 72 376.704C102.939 376.704 133.759 376.704 165.31 376.704Z" fill="#0E3345"/>
<path d="M333.995 210.182C353.648 210.182 372.571 210.182 391.896 210.182C391.896 245.462 391.896 280.11 391.896 315.255C375.766 315.255 359.58 315.255 342.386 315.255C339.684 303.715 336.848 291.698 334.061 279.67C332.022 270.867 330.166 262.019 328.011 253.245C325.986 244.998 322.467 243.103 314.117 242.125C301.52 240.648 294.09 245.263 289.935 257.524C286.357 268.082 281.005 278.032 275.702 289.894C272.344 282.395 269.53 276.085 266.694 269.784C264.892 265.781 262.545 261.944 261.335 257.77C257.756 245.426 250.099 240.605 237.326 242.092C228.18 243.156 225.131 244.952 222.98 254.409C218.385 274.609 213.771 294.805 209.085 315.354C192.676 315.354 176.448 315.354 159.643 315.354C159.643 280.638 159.643 245.827 159.643 210.182C217.593 210.182 275.429 210.182 333.995 210.182Z" fill="#123647"/>
<path d="M255.447 300.259C256.734 302.921 257.908 305.042 258.834 307.265C261.767 314.312 266.098 318.443 274.684 318.469C283.351 318.495 288.823 315.722 292.382 307.742C296.856 297.713 302.165 288.051 308.079 276.313C312.284 294.624 316.395 310.841 319.597 327.234C321.043 334.635 323.712 337.349 331.808 337.045C351.668 336.3 371.576 336.802 391.896 336.802C391.896 347.428 391.896 357.437 391.896 367.939C314.524 367.939 237.343 367.939 159.643 367.939C159.643 357.669 159.643 347.682 159.643 336.802C168.506 336.802 177.176 336.8 185.846 336.803C198.492 336.807 211.141 336.681 223.784 336.899C227.894 336.97 229.64 335.828 230.536 331.546C234.088 314.57 238.145 297.698 242.036 280.792C242.286 279.709 242.71 278.665 243.598 275.914C247.953 284.851 251.586 292.308 255.447 300.259Z" fill="#097887"/>
<path d="M108.408 267.15C115.611 267.15 122.09 267.15 128.968 267.15C128.968 301.065 128.968 334.28 128.968 367.939C118.228 367.939 107.702 367.939 96.8322 367.939C96.8322 334.416 96.8322 301.196 96.8322 267.15C100.589 267.15 104.136 267.15 108.408 267.15Z" fill="#103445"/>
<path d="M454.707 302.699C454.707 325.297 454.707 347.163 454.707 369.4C443.611 369.4 433.354 369.4 422.571 369.4C422.571 335.358 422.571 301.419 422.571 267.15C433.059 267.15 443.323 267.15 454.707 267.15C454.707 278.799 454.707 290.382 454.707 302.699Z" fill="#103445"/>
<path d="M424.739 210.182C438.967 210.183 452.474 210.183 466.393 210.183C466.393 226.533 466.393 242.228 466.393 258.386C447.397 258.386 428.643 258.386 409.425 258.386C409.425 242.424 409.425 226.731 409.425 210.182C414.476 210.182 419.247 210.182 424.739 210.182Z" fill="#087888"/>
<path d="M107.679 210.182C119.494 210.182 130.583 210.182 142.114 210.182C142.114 226.508 142.114 242.204 142.114 258.386C123.12 258.386 104.372 258.386 85.1464 258.386C85.1464 242.455 85.1464 226.756 85.1464 210.182C92.5784 210.182 99.7655 210.182 107.679 210.182Z" fill="#087887"/>
</svg>
