<svg width="600" height="600" viewBox="0 0 600 600" fill="none" xmlns="http://www.w3.org/2000/svg">
<circle cx="300" cy="300" r="300" fill="#EEEEEE"/>
<path d="M237.108 96.936C240.952 96.9374 244.181 97.3575 247.268 96.8711C264.463 94.1608 278.881 100.732 293.118 109.303C299.719 113.277 294.959 119.121 297.828 124.216C299.549 124.363 301.839 124.558 303.899 124.733C304.441 123.942 305.001 123.491 304.935 123.167C302.995 113.552 308.979 109.975 316.079 105.061C333.28 93.1564 351.913 98.0039 370.756 97.0072C370.756 106.429 370.756 115.103 370.756 124.617C415.412 124.617 459.528 124.617 504.035 124.617C504.035 141.897 504.035 158.327 504.035 175.131C368.671 175.131 233.503 175.131 97.9564 175.131C97.9564 158.5 97.9564 142.059 97.9564 124.788C142.159 124.788 186.289 124.788 231.141 124.788C231.141 116.745 231.348 109.501 231.061 102.277C230.896 98.1339 232.26 96.3327 237.108 96.936Z" fill="#113546"/>
<path d="M191.267 348.956C295.86 348.956 399.723 348.956 504.035 348.956C504.035 365.721 504.035 381.951 504.035 398.62C368.685 398.62 233.528 398.62 97.9564 398.62C97.9564 382.215 97.9564 365.959 97.9564 348.956C128.896 348.956 159.716 348.956 191.267 348.956Z" fill="#0E3345"/>
<path d="M359.951 182.435C379.605 182.435 398.528 182.435 417.853 182.435C417.853 217.714 417.853 252.363 417.853 287.508C401.722 287.508 385.536 287.508 368.343 287.508C365.64 275.967 362.804 263.951 360.018 251.922C357.978 243.119 356.122 234.272 353.967 225.498C351.942 217.251 348.424 215.356 340.073 214.377C327.477 212.901 320.047 217.516 315.891 229.776C312.313 240.335 306.961 250.285 301.659 262.147C298.301 254.647 295.486 248.337 292.65 242.037C290.849 238.034 288.501 234.196 287.291 230.023C283.713 217.679 276.055 212.858 263.282 214.344C254.136 215.408 251.087 217.205 248.936 226.661C244.341 246.862 239.728 267.057 235.042 287.606C218.632 287.606 202.404 287.606 185.599 287.606C185.599 252.891 185.599 218.08 185.599 182.435C243.55 182.435 301.385 182.435 359.951 182.435Z" fill="#123647"/>
<path d="M281.403 272.511C282.69 275.173 283.865 277.294 284.79 279.517C287.723 286.565 292.054 290.696 300.64 290.721C309.307 290.747 314.779 287.975 318.339 279.994C322.812 269.965 328.121 260.303 334.035 248.566C338.24 266.876 342.351 283.094 345.553 299.486C346.999 306.887 349.668 309.601 357.764 309.298C377.624 308.553 397.532 309.054 417.853 309.054C417.853 319.681 417.853 329.69 417.853 340.192C340.48 340.192 263.3 340.192 185.599 340.192C185.599 329.921 185.599 319.934 185.599 309.055C194.462 309.055 203.132 309.052 211.802 309.055C224.449 309.06 237.098 308.933 249.741 309.152C253.85 309.223 255.596 308.081 256.492 303.799C260.044 286.823 264.102 269.951 267.993 253.045C268.242 251.961 268.666 250.917 269.554 248.167C273.909 257.104 277.543 264.561 281.403 272.511Z" fill="#097887"/>
<path d="M134.365 239.403C141.568 239.403 148.047 239.403 154.924 239.403C154.924 273.318 154.924 306.533 154.924 340.192C144.184 340.192 133.659 340.192 122.789 340.192C122.789 306.669 122.789 273.449 122.789 239.403C126.545 239.403 130.093 239.403 134.365 239.403Z" fill="#103445"/>
<path d="M480.664 274.951C480.664 297.55 480.664 319.416 480.664 341.653C469.567 341.653 459.31 341.653 448.528 341.653C448.528 307.611 448.528 273.672 448.528 239.403C459.016 239.403 469.279 239.403 480.663 239.403C480.663 251.052 480.663 262.635 480.664 274.951Z" fill="#103445"/>
<path d="M450.695 182.435C464.923 182.435 478.431 182.435 492.349 182.435C492.349 198.786 492.349 214.48 492.349 230.638C473.353 230.638 454.599 230.638 435.381 230.638C435.381 214.676 435.381 198.984 435.381 182.435C440.433 182.435 445.204 182.435 450.695 182.435Z" fill="#087888"/>
<path d="M133.635 182.435C145.45 182.435 156.539 182.435 168.071 182.435C168.071 198.761 168.071 214.457 168.071 230.638C149.077 230.638 130.328 230.638 111.103 230.638C111.103 214.707 111.103 199.008 111.103 182.435C118.535 182.435 125.722 182.435 133.635 182.435Z" fill="#087887"/>
<path d="M127.244 493.766C123.881 485.507 120.679 477.774 117.476 470.041C117.013 470.127 116.55 470.213 116.087 470.299C113.877 481.388 111.667 492.478 109.412 503.792C105.118 503.792 101.047 503.792 96.4957 503.792C100.485 483.361 104.402 463.302 108.273 443.479C116.39 440.835 120.702 443.176 123.154 451.314C126.075 461.013 130.44 470.274 134.596 480.775C143.008 469.809 150.696 459.802 158.366 449.781C164.448 441.833 164.437 441.825 175.374 443.469C171.506 463.53 167.643 483.566 163.745 503.785C159.386 503.785 155.311 503.785 151.1 503.785C152.613 493.631 154.081 483.783 155.549 473.935C154.911 473.666 154.273 473.398 153.636 473.129C148.256 480.203 142.947 487.333 137.471 494.33C134.229 498.472 130.733 500.376 127.244 493.766Z" fill="#183948"/>
<path d="M338.634 458.325C341.193 455.012 343.877 452.36 345.614 449.186C349.347 442.366 354.839 441.392 362.346 443.44C358.46 463.539 354.588 483.571 350.679 503.791C346.385 503.791 342.538 503.791 337.847 503.791C339.77 493.198 341.649 482.852 343.527 472.505C342.974 472.215 342.421 471.925 341.868 471.634C336.475 478.663 331.109 485.712 325.681 492.714C319.71 500.416 316.873 500.074 313.291 491.339C310.428 484.357 307.517 477.396 303.182 470.297C300.889 481.446 298.596 492.594 296.293 503.792C291.88 503.792 288.038 503.792 283.467 503.792C287.428 483.384 291.312 463.378 295.166 443.52C306.046 441.481 306.039 441.483 309.888 451.241C313.641 460.755 317.41 470.262 321.529 480.676C327.484 472.905 332.907 465.828 338.634 458.325Z" fill="#107887"/>
<path d="M459.885 503.583C446.701 496.315 443.405 482.25 451.312 468.884C458.716 456.37 473.623 453.292 487.806 462.13C488.592 457.919 489.284 454.047 490.042 450.189C492.338 438.504 492.348 438.506 505.496 440.546C501.358 461.656 497.225 482.743 492.814 505.253C481.787 499.775 471.104 506.613 459.885 503.583ZM484.606 476.43C482.193 473.721 480.288 469.783 477.265 468.554C470.604 465.847 463.716 470.678 461.429 478.532C459.323 485.768 461.825 491.363 467.995 493.212C474.862 495.269 482.04 490.865 484.014 483.253C484.494 481.403 484.519 479.436 484.606 476.43Z" fill="#0F7886"/>
<path d="M370.886 467.298C376.988 463.726 382.406 458.964 388.577 457.711C403.134 454.754 414.115 461.969 416.089 474.035C418.241 487.196 408.7 500.734 395.24 503.044C385.504 504.714 375.892 504.141 369.544 495.519C362.744 486.284 364.698 476.794 370.886 467.298ZM401.91 483.479C403.868 471.608 398.367 465.311 388.669 468.362C381.561 470.599 379.205 476.149 378.968 482.643C378.788 487.562 381.205 491.486 386.443 492.608C392.919 493.995 397.773 491.405 400.94 485.784C401.174 485.371 401.388 484.947 401.91 483.479Z" fill="#107886"/>
<path d="M205.3 457.049C219.063 458.111 226.299 462.668 228.591 471.336C231.455 482.165 226.735 493.77 217.064 499.681C207.587 505.472 193.068 505.121 185.351 498.775C178.134 492.84 177.213 484.937 179.223 476.784C181.686 466.797 188.571 460.48 198.898 457.841C200.773 457.362 202.766 457.307 205.3 457.049ZM214.313 485.169C217.099 475.547 215.571 470.547 209.191 468.4C202.886 466.278 195.979 469.638 193.234 476.162C190.415 482.863 191.935 489.141 197.025 491.825C202.687 494.81 208.654 492.829 214.313 485.169Z" fill="#163746"/>
<path d="M249.983 471.213C251.219 476.706 252.342 481.595 253.942 488.556C259.102 480.103 263.339 473.23 267.509 466.318C273.404 456.549 273.383 456.537 286.389 457.395C281.286 465.761 276.413 473.762 271.528 481.756C269.114 485.706 266.665 489.634 264.256 493.586C257.736 504.282 257.741 504.285 243.957 503.486C240.635 488.403 237.266 473.106 233.803 457.383C238.187 457.383 242.284 457.383 247.016 457.383C247.946 461.696 248.908 466.152 249.983 471.213Z" fill="#173847"/>
<path d="M427.247 470.381C429.394 459.739 431.451 449.718 433.544 439.52C438.029 439.52 442.145 439.52 447.067 439.52C442.751 461.287 438.54 482.521 434.322 503.792C429.592 503.792 425.443 503.792 420.774 503.792C422.96 492.565 425.058 481.784 427.247 470.381Z" fill="#107786"/>
</svg>
